<svg width="152" height="152" viewBox="0 0 152 152" fill="none" xmlns="http://www.w3.org/2000/svg">
<path d="M25.6628 96.0524C11.8509 66.3374 23.4895 13.8755 25.4063 5.80468C25.5592 5.16112 26.1259 4.75 26.7874 4.75H125.509C126.171 4.75 126.738 5.16112 126.891 5.80468C128.807 13.8755 140.446 66.3374 126.634 96.0524C115.741 119.488 82.423 142.961 76.9215 146.727C76.4415 147.055 75.8553 147.055 75.3754 146.727C69.8739 142.961 36.556 119.488 25.6628 96.0524Z" stroke="#C2BCD2" stroke-width="1.44578"/>
<mask id="path-2-inside-1_879_33" fill="white">
<path fill-rule="evenodd" clip-rule="evenodd" d="M76.1483 45.125C62.9791 45.125 51.4746 51.9966 45.2813 62.2237C45.0155 62.6626 45.0155 63.2122 45.2813 63.651C51.4745 73.8783 62.9792 80.75 76.1484 80.75C89.3176 80.75 100.822 73.8784 107.015 63.6513C107.281 63.2124 107.281 62.6628 107.015 62.224C100.822 51.9967 89.3176 45.125 76.1483 45.125ZM76.1484 68.875C80.0937 68.875 83.292 65.685 83.292 61.75C83.292 57.815 80.0937 54.625 76.1484 54.625C72.2031 54.625 69.0049 57.815 69.0049 61.75C69.0049 65.685 72.2031 68.875 76.1484 68.875Z"/>
</mask>
<path d="M107.015 63.6513L105.779 62.9024L107.015 63.6513ZM107.015 62.224L105.779 62.9729L107.015 62.224ZM45.2813 62.2237L44.0446 61.4748L45.2813 62.2237ZM45.2813 63.651L44.0446 64.3999L45.2813 63.651ZM46.518 62.9726C52.4512 53.1749 63.4886 46.5708 76.1483 46.5708V43.6792C62.4697 43.6792 50.4979 50.8182 44.0446 61.4748L46.518 62.9726ZM76.1484 79.3042C63.4886 79.3042 52.4512 72.7 46.518 62.9021L44.0446 64.3999C50.4979 75.0567 62.4697 82.1958 76.1484 82.1958V79.3042ZM105.779 62.9024C99.8455 72.7001 88.8081 79.3042 76.1484 79.3042V82.1958C89.8271 82.1958 101.799 75.0568 108.252 64.4002L105.779 62.9024ZM76.1483 46.5708C88.8081 46.5708 99.8455 53.175 105.779 62.9729L108.252 61.4751C101.799 50.8183 89.827 43.6792 76.1483 43.6792V46.5708ZM81.8462 61.75C81.8462 64.883 79.2988 67.4292 76.1484 67.4292V70.3208C80.8886 70.3208 84.7378 66.4871 84.7378 61.75H81.8462ZM76.1484 56.0708C79.2988 56.0708 81.8462 58.617 81.8462 61.75H84.7378C84.7378 57.0129 80.8886 53.1792 76.1484 53.1792V56.0708ZM70.4507 61.75C70.4507 58.617 72.9981 56.0708 76.1484 56.0708V53.1792C71.4082 53.1792 67.5591 57.0129 67.5591 61.75H70.4507ZM76.1484 67.4292C72.9981 67.4292 70.4507 64.883 70.4507 61.75H67.5591C67.5591 66.4871 71.4082 70.3208 76.1484 70.3208V67.4292ZM108.252 64.4002C108.797 63.501 108.797 62.3742 108.252 61.4751L105.779 62.9729C105.766 62.9513 105.766 62.9239 105.779 62.9024L108.252 64.4002ZM44.0446 61.4748C43.5001 62.374 43.5001 63.5008 44.0446 64.3999L46.518 62.9021C46.531 62.9237 46.531 62.9511 46.518 62.9726L44.0446 61.4748Z" fill="#C2BCD2" mask="url(#path-2-inside-1_879_33)"/>
</svg>
